<?xml version="1.0" encoding="iso-8859-1"?>
<!-- Uploaded to: SVG Repo, www.svgrepo.com, Generator: SVG Repo Mixer Tools -->
<svg fill="#000000" height="800px" width="800px" version="1.1" id="Layer_1" xmlns="http://www.w3.org/2000/svg" xmlns:xlink="http://www.w3.org/1999/xlink" 
	 viewBox="0 0 512 512" xml:space="preserve">
<g>
	<g>
		<path d="M303.453,170.146c-5.001-5.001-13.099-5.001-18.099,0l-80.555,80.555V12.8c0-7.074-5.726-12.8-12.8-12.8
			s-12.8,5.726-12.8,12.8v237.901l-80.546-80.546c-5.001-5.001-13.099-5.001-18.099,0c-5.001,5.001-5.001,13.099,0,18.099
			l102.4,102.4c2.5,2.5,5.777,3.746,9.054,3.746s6.554-1.246,9.054-3.746l102.4-102.4
			C308.445,183.253,308.445,175.147,303.453,170.146z"/>
	</g>
</g>
<g>
	<g>
		<path d="M431.453,323.746l-102.4-102.4c-2.5-2.5-5.777-3.746-9.054-3.746s-6.554,1.246-9.054,3.746l-102.4,102.4
			c-5.001,5-5.001,13.099,0,18.099c5.001,5,13.099,5,18.099,0l80.555-80.546V499.2c0,7.074,5.726,12.8,12.8,12.8
			c7.074,0,12.8-5.726,12.8-12.8V261.299l80.546,80.546c5.001,5.001,13.099,5.001,18.099,0
			C436.445,336.845,436.445,328.747,431.453,323.746z"/>
	</g>
</g>
</svg>